<svg width="95" height="35" viewBox="0 0 95 35" fill="none" xmlns="http://www.w3.org/2000/svg">
<path fill-rule="evenodd" clip-rule="evenodd" d="M68.9102 10.0346V34.3993H66.1481V10.0359L68.9102 10.0346ZM41.6544 10.0346V13.4245H32.8099V19.6087H41.5758V22.9908H32.8099V31.0211H41.5758V34.3993H30.0437V10.0359H41.6533L41.6544 10.0346ZM85.8723 10.0346L95 34.3993H92.0064L89.0675 26.7543H81.5731L78.6612 34.3993H75.5921L84.8459 10.0359L85.8723 10.0346ZM3.76374 10.0346L11.0896 28.42L18.338 10.0346H19.2994L22.1214 34.4006H19.3821L17.6795 19.0794L11.5879 34.4006H10.5604L4.39327 18.9536L2.69798 34.4006H0L2.80239 10.0346H3.76374ZM51.945 10.0346V31.0536H59.1437V34.4006H49.1901V10.0346H51.945ZM85.3451 16.8286L82.8539 23.393H87.8364L85.3451 16.8286ZM89.2577 0L90.9086 1.71374C90.0795 3.77775 88.9549 4.81429 87.5325 4.81429C87.0487 4.81429 86.2558 4.51202 85.158 3.90878C84.3621 3.4145 83.7749 3.16931 83.3863 3.16931C82.9128 3.16931 82.4291 3.72715 81.9473 4.84932L80.2479 3.05385L80.6221 2.38963C80.8326 2.00781 81.0662 1.64695 81.3209 1.31028C81.5504 1.008 81.7737 0.762815 82.0135 0.581192C82.2343 0.392094 82.4805 0.25454 82.7402 0.175136C82.9924 0.0934059 83.2633 0.0454056 83.5558 0.0454056C84.2308 0.0454056 85.0216 0.334704 85.9023 0.884761C86.8068 1.46206 87.3878 1.74747 87.6493 1.74747C88.132 1.74747 88.6727 1.16238 89.2577 0Z" fill="white"/>
</svg>
